<svg width="51" height="29" viewBox="0 0 51 29" fill="none" xmlns="http://www.w3.org/2000/svg">
<path d="M23.3091 3.07021C23.7108 3.00601 25.2613 3.03946 25.6756 3.08089C28.0415 3.33776 30.2574 4.36493 31.9824 6.00437C31.5907 6.43571 30.7397 7.38456 30.3347 7.75335C29.2322 6.8062 28.142 6.1601 26.7294 5.76591C24.553 5.1658 22.2276 5.45102 20.2607 6.5593C16.2176 8.84189 14.7304 13.9775 16.9419 18.1023C17.0237 18.255 17.5348 19.0519 17.6778 19.0915C17.7665 19.0099 17.7455 18.2386 17.7518 18.0469C17.7814 17.0139 17.7908 15.9804 17.78 14.947C17.7791 13.8914 17.7182 12.9562 18.0471 11.9327C18.597 10.2121 19.8078 8.7803 21.4132 7.9521C23.698 6.7923 26.6925 7.06981 28.6466 8.73671C28.7411 8.81742 28.9003 8.91898 28.9555 9.02824C28.9402 9.16118 28.3727 9.69969 28.2372 9.83747C28.153 9.92942 27.6085 10.5606 27.499 10.5372C27.3439 10.5041 27.0529 10.2442 26.8893 10.1441C26.7258 10.0452 26.5575 9.95437 26.3851 9.87202C25.8882 9.63803 25.354 9.49309 24.807 9.44384C23.6156 9.35707 22.4375 9.74036 21.5252 10.5116C19.9203 11.8796 19.9466 13.4087 19.9637 15.3436C19.9665 15.6647 20.0089 16.0672 19.985 16.3723C21.74 16.2957 23.7279 16.4756 25.4972 16.3703C25.4978 17.022 25.4761 17.8738 25.5226 18.5042C25.0806 18.4447 24.1242 18.4681 23.6473 18.4681L19.9986 18.4696C20.0351 18.7585 19.9928 19.5089 19.9832 19.8333L19.9381 22.0234C19.9203 22.6167 19.8698 23.4895 19.9348 24.0639C19.1185 23.6299 18.372 23.2345 17.6524 22.6414C15.2836 20.6893 13.8437 18.2381 13.5419 15.1632C13.2636 12.3269 13.9541 9.54659 15.7447 7.29541C17.679 4.86334 20.1817 3.38026 23.3091 3.07021Z" fill="#383233"/>
<path d="M28.7168 16.7923C28.6177 16.7712 28.5251 16.7643 28.4588 16.6911C28.3872 16.5045 28.7587 15.7146 28.8281 15.5087C28.8847 15.3411 29.0161 15.0582 29.0835 14.8959C29.465 13.979 29.9977 13.3382 30.7604 12.7195C30.9867 12.536 31.2399 12.0588 31.5803 11.9288C31.6862 11.8708 32.0963 11.9263 32.1167 11.9062C32.275 11.7506 32.365 11.5721 32.5443 11.4213L32.5596 11.4083C32.687 11.3012 33.2138 11.1108 33.3948 11.0481C35.4905 10.3239 37.4429 10.3523 39.6034 10.5483C38.8541 10.8829 38.3689 11.0051 37.6824 11.5501C36.9628 12.1211 36.527 12.7889 35.9269 13.4743C34.2495 15.3895 31.7488 16.9842 29.1031 16.8808L29.0753 16.8948C28.9717 16.9019 28.8196 16.8313 28.7168 16.7923Z" fill="#383233"/>
<path d="M28.7168 16.7924C28.8196 16.5732 29.4973 15.8588 29.6924 15.6568C31.4381 13.8509 33.5001 12.2514 35.8691 11.3616C36.0365 11.2988 37.0648 10.9696 37.199 10.9575L37.2242 10.9792C36.8977 11.1739 36.6289 11.2164 36.297 11.3544C33.4783 12.5262 30.7952 14.3069 29.1031 16.8809L29.0753 16.8948C28.9717 16.902 28.8196 16.8314 28.7168 16.7924Z" fill="#383233"/>
<path d="M30.2959 20.3876C30.3209 20.3829 30.3461 20.3793 30.3716 20.3813C30.5766 20.3981 31.7431 21.8091 31.953 22.0357C31.7692 22.2327 31.4381 22.5102 31.2263 22.6754C28.9051 24.4787 25.9606 25.2819 23.0452 24.907C22.7467 24.8621 21.9934 24.776 21.784 24.6307C21.6783 24.4646 21.6983 22.4795 21.7104 22.1604C24.0147 22.881 26.5127 22.6374 28.6344 21.4851C29.0524 21.2539 29.4225 20.9839 29.8063 20.7026C29.9575 20.5916 30.1147 20.4735 30.284 20.3931L30.2959 20.3876Z" fill="#383233"/>
</svg>
